<?xml version="1.0" standalone="no"?>
<!DOCTYPE svg PUBLIC "-//W3C//DTD SVG 20010904//EN"
 "http://www.w3.org/TR/2001/REC-SVG-20010904/DTD/svg10.dtd">
<svg version="1.0" xmlns="http://www.w3.org/2000/svg"
 width="400.000000pt" height="400.000000pt" viewBox="0 0 400.000000 400.000000"
 preserveAspectRatio="xMidYMid meet">

<g transform="translate(0.000000,400.000000) scale(0.100000,-0.100000)"
fill="#000000" stroke="none">
<path d="M1958 3780 c-15 -4 -51 -11 -80 -15 -123 -16 -347 -183 -438 -327
l-39 -62 -44 3 c-90 5 -192 -69 -281 -203 -30 -45 -66 -92 -81 -106 -15 -14
-43 -52 -62 -85 -46 -78 -78 -241 -69 -357 8 -92 12 -104 37 -111 17 -5 18
-13 13 -114 -3 -60 -1 -121 5 -138 9 -29 9 -29 11 -5 1 14 6 34 11 45 6 13 7
1 3 -37 -4 -33 -1 -71 6 -92 10 -32 15 -36 47 -36 l35 0 -6 -62 c-3 -35 -8
-121 -12 -193 -5 -107 -3 -137 10 -168 21 -48 36 -47 36 2 0 40 61 354 83 422
16 54 27 49 27 -12 0 -61 31 -172 70 -250 68 -135 201 -217 354 -218 79 -1
169 20 223 51 53 31 137 122 152 166 8 20 19 44 26 52 7 8 21 42 30 75 9 33
20 68 25 77 19 35 12 83 -17 109 -39 34 -132 99 -142 99 -5 0 -14 6 -20 13 -6
8 -30 20 -53 27 -24 8 -48 17 -53 21 -6 4 -48 15 -95 25 -67 13 -111 15 -210
10 -69 -3 -147 -11 -174 -16 -27 -6 -51 -9 -52 -7 -2 1 1 18 5 38 4 19 5 44 1
55 -5 11 -2 37 7 59 28 77 41 133 36 160 -7 32 31 76 90 106 21 11 60 42 87
69 33 33 63 53 92 61 24 6 49 13 56 15 6 2 12 15 12 30 0 25 2 26 38 21 21 -2
58 -17 82 -32 38 -24 50 -27 99 -21 191 21 188 21 271 -28 14 -8 54 -27 90
-42 53 -23 78 -27 135 -25 39 1 88 7 110 13 57 16 93 10 151 -23 40 -22 58
-27 87 -22 27 4 46 0 79 -19 24 -14 70 -30 103 -38 76 -16 168 -63 185 -95 10
-20 11 -46 3 -127 -16 -149 -40 -299 -55 -335 -13 -30 -14 -31 -46 -18 -21 10
-32 21 -32 35 0 11 -4 28 -9 38 -6 9 -12 29 -16 44 -7 37 -59 94 -104 116 -30
14 -61 17 -176 15 -99 -1 -149 -6 -168 -16 -35 -18 -77 -67 -77 -89 0 -16 15
-18 173 -18 198 0 255 -11 306 -59 19 -17 31 -34 29 -37 -3 -3 -32 4 -64 14
-92 31 -186 36 -292 17 -51 -10 -95 -21 -98 -26 -3 -5 -12 -9 -21 -9 -32 0
-132 -54 -137 -75 -10 -34 -7 -173 5 -247 13 -86 77 -218 114 -238 14 -7 25
-19 25 -27 0 -7 6 -13 13 -13 7 0 28 -11 48 -24 43 -30 140 -56 204 -56 45 0
175 28 185 41 3 3 21 14 40 25 19 10 38 24 42 29 13 17 9 -38 -7 -99 -9 -33
-13 -62 -9 -65 4 -3 9 0 11 7 3 7 10 18 17 25 13 13 46 125 46 157 0 11 4 20
9 20 5 0 11 14 15 31 3 17 19 57 34 88 16 31 32 70 36 86 12 49 30 85 43 85 7
0 13 4 13 9 0 5 11 12 25 15 15 4 30 18 35 32 14 36 12 44 -9 44 -32 0 -34 18
-7 53 16 21 26 47 26 68 0 33 30 131 52 173 6 11 14 63 18 116 6 77 12 102 28
118 26 26 39 152 21 211 -10 33 -10 49 1 81 11 33 11 47 -1 82 -7 24 -14 58
-16 77 -2 36 -27 96 -43 106 -6 3 -10 17 -10 30 0 13 -4 27 -10 30 -5 3 -10
14 -10 23 0 16 -73 106 -132 163 -14 14 -64 51 -110 83 -45 32 -114 82 -153
112 -140 108 -328 185 -509 209 -117 16 -343 19 -388 5z m-283 -1431 c5 -5 24
-9 42 -9 18 0 51 -11 73 -25 22 -14 43 -25 48 -25 15 0 117 -82 134 -109 10
-14 18 -38 18 -53 0 -15 5 -30 10 -33 7 -4 7 -12 0 -25 -5 -10 -10 -29 -10
-42 0 -27 -26 -99 -55 -150 -20 -35 -109 -138 -119 -138 -3 0 -31 -12 -63 -27
-52 -25 -69 -28 -158 -27 -95 0 -103 2 -167 36 -118 63 -181 152 -205 287 -10
57 -10 91 -2 144 12 78 29 112 75 150 28 24 53 33 154 57 42 9 211 1 225 -11z
m-505 -44 c0 -10 -10 -15 -27 -15 l-28 0 25 14 c14 8 26 14 28 15 1 1 2 -6 2
-14z m1627 -118 c69 -19 126 -46 163 -79 25 -23 25 -24 20 -153 -3 -71 -11
-140 -18 -152 -7 -12 -12 -49 -12 -81 0 -55 -3 -63 -33 -95 -19 -18 -60 -47
-93 -63 -52 -26 -70 -29 -150 -29 -81 0 -97 3 -149 30 -71 36 -165 124 -165
154 0 11 -4 21 -8 21 -12 0 -30 58 -41 133 -15 109 2 211 43 252 19 19 123 65
148 65 13 0 30 4 37 9 23 15 189 7 258 -12z"/>
<path d="M1520 2176 c-59 -16 -121 -56 -139 -89 -13 -24 -12 -31 5 -62 10 -19
22 -35 27 -35 4 0 5 5 2 11 -26 42 68 139 135 139 21 0 21 -1 -3 -32 -33 -43
-41 -87 -26 -136 10 -36 16 -41 58 -53 25 -6 50 -16 56 -20 16 -15 85 -10 103
8 53 51 67 119 37 177 -19 36 -16 39 11 17 31 -25 56 -78 58 -123 2 -62 16
-43 16 22 0 33 -4 60 -8 60 -5 0 -17 16 -28 35 -10 19 -27 38 -38 41 -11 4
-26 13 -33 20 -33 33 -150 43 -233 20z m174 -109 c9 -15 7 -21 -9 -33 -26 -19
-69 -14 -73 9 -9 44 58 63 82 24z"/>
<path d="M2505 2048 c-49 -16 -95 -41 -95 -50 0 -4 4 -8 9 -8 5 0 1 -20 -7
-44 -14 -38 -14 -51 -2 -100 7 -31 16 -56 19 -56 3 0 35 -5 70 -11 108 -17
153 5 170 83 12 51 0 104 -28 125 -32 23 -2 24 36 0 61 -39 85 -71 90 -120 5
-39 2 -47 -17 -57 -12 -6 -19 -14 -16 -17 10 -11 86 49 92 72 14 57 -101 175
-169 175 -9 0 -19 5 -22 10 -8 13 -90 11 -130 -2z m-2 -77 c11 -2 8 -46 -5
-59 -21 -21 -57 -14 -70 14 -18 39 10 56 75 45z"/>
<path d="M2378 1973 c-20 -23 -38 -59 -43 -84 -6 -32 4 -22 26 27 12 25 28 48
36 51 14 6 18 23 5 23 -5 0 -16 -8 -24 -17z"/>
<path d="M1550 2570 c-19 -5 -36 -13 -38 -19 -2 -6 -11 -11 -20 -11 -31 -1
-132 -111 -132 -144 0 -10 38 -7 45 4 27 43 208 54 317 20 191 -62 258 -73
258 -41 0 54 -48 111 -93 111 -7 0 -34 11 -61 25 -27 14 -57 25 -67 25 -10 0
-20 4 -24 9 -3 5 -31 13 -63 16 -31 4 -64 8 -72 10 -8 1 -31 -1 -50 -5z"/>
<path d="M1867 1553 c-14 -13 -6 -23 18 -23 14 0 37 -7 50 -16 22 -14 25 -14
25 -1 0 29 -73 60 -93 40z"/>
<path d="M2173 1497 c-48 -25 -56 -42 -15 -33 15 4 46 9 70 13 42 6 56 25 26
37 -24 9 -35 7 -81 -17z"/>
<path d="M1686 1327 c-39 -28 -6 -156 59 -231 14 -16 25 -33 25 -38 0 -4 4 -8
10 -8 8 0 0 16 -52 98 -37 60 -13 57 27 -3 17 -24 34 -45 39 -45 5 0 14 -7 20
-16 13 -17 84 -39 176 -56 101 -18 177 6 209 65 15 27 41 39 61 27 16 -10 -71
-106 -104 -116 -11 -4 -24 -12 -28 -18 -11 -16 -203 -15 -220 2 -14 14 -38 16
-38 4 0 -13 96 -32 164 -32 65 0 126 15 126 31 0 5 7 9 15 9 8 0 25 11 39 25
14 14 28 25 32 25 29 0 114 145 114 194 0 23 -53 38 -150 42 l-95 5 70 -21
c39 -11 80 -23 93 -27 13 -3 21 -11 19 -17 -5 -15 -206 -13 -317 3 -110 16
-290 61 -290 73 0 9 221 5 335 -7 37 -3 54 -2 45 3 -8 5 -71 15 -140 21 -69 7
-147 14 -175 17 -34 4 -56 1 -69 -9z"/>
<path d="M2875 1269 c-4 -6 -5 -12 -2 -15 2 -3 7 2 10 11 7 17 1 20 -8 4z"/>
<path d="M2825 1164 c-9 -15 -12 -23 -6 -20 11 7 35 46 28 46 -3 0 -12 -12
-22 -26z"/>
<path d="M2766 1073 c-6 -14 -5 -15 5 -6 7 7 10 15 7 18 -3 3 -9 -2 -12 -12z"/>
<path d="M2736 1035 c-9 -9 -16 -21 -16 -28 0 -6 9 -1 21 12 24 26 20 40 -5
16z"/>
<path d="M2685 980 c-3 -5 -1 -10 4 -10 6 0 11 5 11 10 0 6 -2 10 -4 10 -3 0
-8 -4 -11 -10z"/>
<path d="M2623 913 c-7 -2 -13 -11 -13 -18 0 -17 -34 -37 -45 -27 -5 4 -5 1
-1 -6 9 -15 31 -4 65 33 22 24 20 29 -6 18z"/>
<path d="M1359 860 c-50 -15 -157 -72 -178 -94 -36 -39 -19 -53 71 -61 46 -4
87 -13 95 -20 18 -18 17 -70 -2 -85 -14 -12 -13 -15 5 -35 28 -30 25 -85 -6
-85 -8 0 -14 -4 -14 -10 0 -5 13 -10 30 -10 23 0 31 -5 36 -25 3 -14 3 -36 0
-50 -4 -14 -2 -25 3 -25 16 0 18 -48 2 -68 -9 -11 -42 -35 -74 -52 -62 -34
-106 -35 -152 -6 -11 8 -34 16 -51 20 -29 6 -31 5 -48 -44 -28 -78 -90 -114
-158 -90 -50 16 -73 55 -72 117 1 41 7 57 28 80 45 48 111 155 134 216 12 33
22 62 22 65 0 4 -23 -28 -51 -71 -40 -62 -59 -82 -99 -102 -51 -26 -139 -111
-153 -148 -4 -12 -13 -25 -20 -29 -7 -4 -12 -32 -12 -67 0 -32 -4 -63 -8 -68
-17 -17 -37 -77 -31 -95 5 -17 30 -18 542 -18 l537 0 12 53 c17 78 10 276 -14
392 -11 55 -23 125 -27 156 -7 52 -10 58 -56 92 -28 21 -50 42 -50 47 0 6 -5
10 -11 10 -6 0 -17 6 -24 13 -34 30 -45 37 -56 37 -6 0 -9 8 -6 20 3 11 1 20
-3 20 -5 0 -17 3 -27 6 -15 6 -16 4 -5 -7 29 -31 9 -35 -24 -3 -39 36 -43 37
-85 24z m338 -748 c21 -13 9 -47 -17 -47 -30 0 -51 32 -30 45 18 12 31 12 47
2z"/>
<path d="M2439 831 c-7 -16 -29 -42 -48 -58 -19 -15 -46 -38 -58 -50 -13 -13
-27 -23 -30 -23 -4 0 -53 -22 -109 -50 -56 -27 -110 -50 -118 -50 -10 0 -16
-9 -16 -24 0 -14 -4 -27 -9 -30 -5 -4 -17 -41 -26 -84 -9 -42 -21 -85 -27 -95
-13 -25 -22 -240 -14 -310 l7 -57 552 0 552 0 14 48 c18 62 20 194 4 200 -7 2
-13 11 -13 21 0 34 -163 181 -201 181 -15 0 -10 -19 11 -40 30 -30 90 -161 90
-197 0 -45 -19 -82 -51 -99 -61 -31 -125 -4 -164 68 -17 31 -32 47 -40 44 -8
-3 -42 -10 -77 -16 -35 -6 -87 -18 -116 -26 -60 -18 -100 -14 -143 17 -34 24
-38 61 -10 85 18 16 18 17 0 35 -25 25 -24 55 1 76 24 20 26 33 6 33 -19 0
-30 35 -20 68 4 15 6 41 5 57 -2 23 7 38 34 65 36 34 37 35 113 32 91 -3 122
10 122 48 0 30 -47 86 -93 109 -19 10 -24 17 -15 22 7 4 9 11 5 16 -4 4 -19
-6 -33 -22 -15 -17 -23 -23 -20 -12 3 9 1 17 -4 17 -6 0 -10 -11 -10 -25 0
-15 -8 -29 -22 -36 -23 -12 -23 -12 -4 10 19 21 19 21 -4 21 -16 0 -20 3 -13
13 15 19 23 47 14 47 -5 0 -15 -13 -22 -29z"/>
</g>
</svg>
